<svg width="32" height="32" viewBox="0 0 32 32" fill="none" xmlns="http://www.w3.org/2000/svg">
    <circle cx="16" cy="16" r="16" fill="url(#paint0_linear_445_1101)"/>
    <path d="M14.432 25.744C14.048 25.3387 13.856 24.88 13.856 24.368C13.856 23.856 14.0267 23.3973 14.368 22.992C14.7307 22.5653 15.1893 22.352 15.744 22.352C16.2347 22.352 16.6827 22.544 17.088 22.928C17.4933 23.312 17.696 23.76 17.696 24.272C17.696 24.784 17.5147 25.2533 17.152 25.68C16.7893 26.1067 16.3307 26.32 15.776 26.32C15.2853 26.32 14.8373 26.128 14.432 25.744ZM16.48 17.872C16.3093 19.3227 16.064 20.048 15.744 20.048C15.424 20.048 15.1787 19.3227 15.008 17.872C14.944 17.4667 14.784 15.792 14.528 12.848C14.2933 9.904 14.176 8.048 14.176 7.28C14.176 6.81067 14.3147 6.45867 14.592 6.224C14.8907 5.968 15.2747 5.84 15.744 5.84C16.2133 5.84 16.5867 5.968 16.864 6.224C17.1627 6.45867 17.312 6.81067 17.312 7.28C17.312 8.048 17.184 9.91467 16.928 12.88C16.6933 15.8453 16.544 17.5093 16.48 17.872Z" fill="white"/>
    <defs>
        <linearGradient id="paint0_linear_445_1101" x1="7" y1="3" x2="26.5" y2="28" gradientUnits="userSpaceOnUse">
            <stop stop-color="#E2D66B"/>
            <stop offset="1" stop-color="#83D65C"/>
        </linearGradient>
    </defs>
</svg>
