<svg width="36" height="36" viewBox="0 0 36 36" fill="none" xmlns="http://www.w3.org/2000/svg">
    <g clip-path="url(#clip0_439_1096)">
        <path d="M16.6856 26.6191L29.6049 13.695C29.8471 13.4528 30 13.0959 30 12.7263C30 12.4019 29.8825 12.0662 29.6035 11.7886L25.1928 7.39233C24.9308 7.1303 24.5853 7 24.2412 7C23.8972 7 23.5531 7.1303 23.2897 7.39233L10.3434 20.2853C9.53775 22.7823 8.1416 27.1163 8.04106 27.4817C8.01274 27.5879 8 27.6941 8 27.7989C8 28.4519 8.49418 29 9.08322 29C9.80678 29 10.4865 28.7323 16.6856 26.6191ZM12.0554 21.8857L15.0813 24.9124L10.5955 26.3939L12.0554 21.8857ZM13.4076 20.2343L24.2412 9.44743L27.5475 12.7433L16.7337 23.5613L13.4076 20.2343Z" fill="black"/>
        <circle cx="18" cy="18" r="17" stroke="black" stroke-width="2"/>
    </g>
    <defs>
        <clipPath id="clip0_439_1096">
            <rect width="36" height="36" fill="white"/>
        </clipPath>
    </defs>
</svg>
