<svg width="29" height="22" viewBox="0 0 29 22" fill="none" xmlns="http://www.w3.org/2000/svg">
    <path d="M19.4709 6.80974C19.0698 6.19887 18.1703 6.21049 17.7852 6.83152L14.6578 11.874C14.3415 12.384 13.6503 12.5025 13.1822 12.127L10.4118 9.90465C9.96247 9.54424 9.30237 9.63692 8.9697 10.1071L1.67156 20.4224C1.20297 21.0847 1.67659 22 2.4879 22H27.5915C28.387 22 28.864 21.1162 28.4274 20.4512L19.4709 6.80974ZM0.55542 3.66667C0.55542 1.64267 2.1732 0 4.16653 0C6.15986 0 7.77764 1.64267 7.77764 3.66667C7.77764 5.6925 6.15986 7.33333 4.16653 7.33333C2.1732 7.33333 0.55542 5.6925 0.55542 3.66667Z" fill="black"/>
</svg>
